<?xml version="1.0" standalone="no"?>
<!DOCTYPE svg PUBLIC "-//W3C//DTD SVG 20010904//EN"
 "http://www.w3.org/TR/2001/REC-SVG-20010904/DTD/svg10.dtd">
<svg version="1.0" xmlns="http://www.w3.org/2000/svg"
 width="512.000000pt" height="512.000000pt" viewBox="0 0 512.000000 512.000000"
 preserveAspectRatio="xMidYMid meet">
<metadata>
Created by potrace 1.14, written by Peter Selinger 2001-2017
</metadata>
<g transform="translate(0.000000,512.000000) scale(0.100000,-0.100000)"
fill="#000000" stroke="none">
<path d="M2375 5103 c-175 -15 -398 -56 -545 -101 -992 -306 -1705 -1169
-1811 -2190 -17 -169 -7 -526 20 -677 55 -307 154 -585 300 -840 354 -616 937
-1058 1613 -1224 214 -52 297 -63 553 -68 254 -5 379 5 585 47 472 98 933 350
1280 699 398 401 640 886 727 1458 21 137 24 527 5 658 -42 296 -120 553 -242
800 -126 257 -262 453 -453 651 -436 454 -998 725 -1622 784 -102 9 -317 11
-410 3z m356 -1169 c269 -51 513 -233 634 -474 66 -131 87 -220 93 -382 l4
-148 -61 0 -61 0 0 84 c0 241 -82 441 -246 597 -152 144 -319 210 -532 210
-345 -1 -638 -216 -742 -546 -17 -53 -24 -104 -27 -207 l-6 -138 -65 0 -65 0
6 133 c4 88 13 158 27 212 93 345 378 606 727 665 81 13 227 11 314 -6z m1055
-1098 c48 -48 44 -105 -10 -148 -20 -16 -99 -18 -1214 -18 l-1194 0 -29 29
c-48 49 -35 137 25 161 11 5 554 9 1205 9 l1183 1 34 -34z m-1862 -318 c3 -51
8 -153 10 -225 l5 -133 -229 0 -230 0 -1 33 c0 17 -8 115 -18 217 -10 102 -16
188 -14 193 2 4 109 7 238 7 l233 0 6 -92z m606 -133 l0 -225 -265 0 -265 0
-1 33 c0 17 -4 115 -8 217 -5 102 -6 188 -4 193 2 4 125 7 274 7 l269 0 0
-225z m607 73 c-4 -83 -7 -184 -7 -225 l0 -73 -270 0 -270 0 0 218 c0 120 3
222 7 225 3 4 128 7 276 7 l270 0 -6 -152z m543 131 c0 -30 -30 -358 -36 -396
l-5 -33 -226 0 -225 0 7 218 c4 119 9 220 12 225 2 4 110 7 239 7 230 0 234 0
234 -21z m-1736 -631 c3 -73 7 -168 9 -210 l2 -78 -212 0 c-212 0 -213 0 -217
23 -4 19 -36 368 -36 390 0 4 101 7 224 7 l224 0 6 -132z m586 -78 l0 -210
-254 0 -255 0 -5 53 c-3 28 -7 123 -10 210 l-5 157 264 0 265 0 0 -210z m590
137 c0 -41 -3 -135 -7 -210 l-6 -137 -259 0 -258 0 0 210 0 210 265 0 265 0 0
-73z m504 -69 c-7 -79 -16 -173 -19 -210 l-7 -68 -216 0 -215 0 6 107 c4 58 7
153 7 210 l0 103 228 0 228 0 -12 -142z m-1661 -490 c4 -79 7 -180 7 -225 l0
-83 -103 0 c-117 0 -178 14 -230 55 -54 41 -75 95 -87 221 -6 60 -12 124 -14
142 l-5 32 213 0 213 0 6 -142z m567 -83 l0 -225 -245 0 -245 0 -4 23 c-3 12
-8 113 -11 225 l-6 202 255 0 256 0 0 -225z m573 148 c-1 -43 -6 -144 -9 -226
l-6 -147 -247 2 -246 3 -3 223 -2 222 258 0 259 0 -4 -77z m487 59 c0 -43 -22
-240 -30 -272 -13 -47 -63 -106 -113 -132 -35 -18 -64 -23 -170 -26 l-127 -4
5 163 c3 90 8 192 11 227 l6 62 209 0 c196 0 209 -1 209 -18z"/>
</g>
</svg>
